<svg fill="none" height="589" viewBox="0 0 785 589" width="785" xmlns="http://www.w3.org/2000/svg" xmlns:xlink="http://www.w3.org/1999/xlink"><linearGradient id="a"><stop offset="0" stop-color="#aa367c"/><stop offset="1" stop-color="#4a2fbd"/></linearGradient><linearGradient id="b" gradientUnits="userSpaceOnUse" x1="150.244" x2="229.354" xlink:href="#a" y1="250.024" y2="250.297"/><linearGradient id="c" gradientUnits="userSpaceOnUse" x1="109.878" x2="242.514" xlink:href="#a" y1="301.97" y2="302.276"/><linearGradient id="d" gradientUnits="userSpaceOnUse" x1="497.955" x2="576.769" xlink:href="#a" y1="330.243" y2="330.466"/><linearGradient id="e" gradientUnits="userSpaceOnUse" x1="410.422" x2="580.551" xlink:href="#a" y1="402.211" y2="403.021"/><path d="m542.825 172.118c-54.172-50.86-117.64-63.99-134.41-66.669 11.302-30.5292 28.758-75.9127 33.105-82.6281 2.812-.3537 5.644-.516 8.477-.4857 12.322 0 38.706 2.5623 76.911 19.7611 55.175 24.8354 69.839 52.7688 72.748 59.6017z" fill="#fff"/><path d="m449.997 25.6847c12.055 0 37.904 2.5287 75.49 19.4596 49.842 22.474 65.943 47.5941 70.223 56.0847l-53.202 65.999c-26.316-23.72-57.042-42.01-90.421-53.824-12.723-4.587-25.796-8.132-39.091-10.601 12.49-33.6105 26.066-68.2091 30.631-76.8504 1.488-.1339 3.628-.2679 6.403-.2679zm.033-6.6987c-3.397-.0714-6.793.1641-10.148.7034-3.913 1.3062-36.015 88.4896-36.015 88.4896s76.192 7.787 139.31 68.862l60.191-74.724s-10.032-33.9283-75.239-63.2685c-38.172-17.1988-64.773-20.096-78.232-20.096z" fill="#a0c6f4"/><path d="m415.019 114.961s74.922 7.57 121.068 50.023" stroke="#fff" stroke-linecap="round" stroke-linejoin="round"/><path d="m479.691 111.294 27.956-54.4269 28.725 56.7549z" fill="#a0c6f4"/><path d="m485.125 110.523 27.956-54.4263 28.724 56.7543z" stroke="#fff" stroke-linecap="round" stroke-linejoin="round"/><path d="m458.909 15.6701s84.033 7.6365 136.199 69.7332" stroke="#fff" stroke-linecap="round" stroke-linejoin="round"/><path d="m501.828 256.856c-4.614-3.35-7.64-5.677-7.64-5.677 1.27-1.675 21.484-23.262 33.188-40.645 0 0-23.675 47.712-25.548 46.322z" fill="#fff"/><path d="m215.435 99.6547c2.257 3.7683 3.243 2.2603 9.747 1.6743s15.767 4.254 19.011 12.276c3.243 8.021 2.257 9.261.501 10.265-1.755 1.005-14.245 2.512-14.747 5.024" stroke="#fff" stroke-linecap="round" stroke-linejoin="round"/><path d="m383.92 507.369-5.835-9.864-20.666 34.515 5.418 4.187z" fill="#f9865f"/><path d="m246.667 421.878s-10.717-17.434-6.119-25.991l34.175 3.667z" fill="#f9865f"/><path d="m246.667 421.878 2.04 4.722-6.303 24.651c-.399 1.523-.36 3.127.11 4.628.47 1.502 1.353 2.841 2.548 3.863l31.25-46.271c1.432-2.13 2.059-4.701 1.768-7.252s-1.481-4.914-3.357-6.665l-6.989-6.497z" fill="#000"/><path d="m229.948 128.961c9.781-.234 22.187-.854 19.696-8.373-2.492-7.519-11.704-26.0744-32.855-20.498 0 0-7.44 6.213 1.856 17.4s11.303 11.471 11.303 11.471z" fill="#2a1e33"/><path d="m279.472 399.889s-16.72-49.402-2.575-71.089c11.704-17.902 49.791 11.203 55.008 15.072l27.27-49.269s-6.287-8.842-21.736-17.5-79.302-34.582-109.314 12.844c-11.085 17.518-11.252 92.727 10.032 121.548z" fill="#3b3b5f"/><path d="m279.472 399.889s-16.72-49.402-2.575-71.089c11.704-17.903 49.791 11.203 55.008 15.072" stroke="#fff" stroke-linecap="round" stroke-linejoin="round"/><path d="m359.175 294.603c-12.406 13.079-49.173 76.783-57.449 107.179-11.052 40.728-6.889 74.506 53.904 140.672l29.377-42.872s-20.666-31.417-16.72-61.041c5.585-42.855 36.031-84.404 51.43-110.763z" fill="#3b3b5f"/><path d="m363.84 300.129 48.872 38.434 14.613-22.24z" fill="#8c3c6c"/><path d="m644.599 259.736c7.624 1.641 13.431 4.55 17.422 8.725 3.996 4.187 2.19 6.364.736 7.637-1.455 1.272-7.09-.185-11.989-4.539-4.898-4.354-6.169-11.823-6.169-11.823z" fill="#ff8a66"/><path d="m494.188 251.179c1.27-1.675 21.484-23.262 33.188-40.645 0 0 35.363 39.69 39.208 40.98 1.421.468 10.032.351 20.867.251 18.191-.201 42.384-.385 47.735 2.311 8.527 4.253 13.643 6.397 15.766 12.376 2.124 5.978 2.977 9.88-2.123 10.232-5.969.435-9.798-7.252-9.798-7.252-5.622 3.025-11.476 5.595-17.505 7.687 0 0-45.328 17.618-75.624 9.094-8.243-2.328-51.714-35.034-51.714-35.034z" fill="#f9865f"/><path d="m219.431 92.638c-3.879 1.4905-6.253 3.2656-3.996 7.0169 2.257 3.7511 3.243 2.2611 9.747 1.6751 6.504-.587 15.767 4.253 19.011 12.275 3.243 8.022 2.257 9.261.501 10.266-1.755 1.004-14.245 2.512-14.746 5.024-.502 2.512 5.016 9.897 16.569 9.411l2.742-.502s24.193 23.663 27.705 27.163c3.511 3.5 29.226 20.967 43.471 24.517 10.768 2.696 32.604-.77 45.712-3.349 6.37-1.256 10.701-2.278 10.701-2.278s-9.848-17.768-11.855-45.065c0 0-23.541 3.785-39.191 7.234 0 0-36.516-20.397-54.272-29.423 0 0-15.516-19.0247-22.773-21.5367-7.256-2.512-24.076-4.4211-29.326-2.4283z" fill="#f9865f"/><path d="m366.08 186.218c6.37-1.256 10.701-2.277 10.701-2.277s-11.921-15.072-13.911-42.336c0 0-5.384 5.811-3.712 21.268 2.107 19.527 6.922 23.345 6.922 23.345z" fill="#fff"/><path d="m362.368 138.541s.335 33.376 9.263 47.292l3.194-1.289s-42.051 49.285-55.661 81.489c-2.223 5.275 87.328 62.566 100.553 61.762 0 0 43.639-66.702 58.52-86.48l16.051 12.46s31.45-31.92 33.138-43.24c0 0-30.38-37.027-55.175-47.879-24.796-10.852-47.183-29.407-73.885-28.821-23.107.352-35.998 4.706-35.998 4.706z" fill="#471c36"/><path d="m494.221 253.774-16.034-12.459 2.558-6.967z" fill="#fff"/><path d="m518.632 121.827c-2.809 8.759-10.918 34.063-19.964 37.178-9.045 3.115-18.391-.787-18.391-.787l-9.631 4.923c-1.07 3.232-8.678 6.012-18.492 6.398-7.273.284-11.704-9.077-9.547-15.843.986-3.115 4.681-18.421 4.681-18.421s7.792-28.737 15.048-34.666c7.257-5.9281 13.911-11.823 33.055-4.0692 29.16 11.8562 23.241 25.2872 23.241 25.2872z" fill="#f9865f"/><path d="m460.497 123.083c-1.287 5.359-6.855 16.111-10.517 14.168-3.661-1.942-4.932-6.866-2.357-16.328s4.731-30.931 12.021-34.7995 10.517.6364 10.517.6364-3.227-15.6749 6.22-17.8352c0 0 3.21-1.4905 1.923 9.2442 1.25-2.9518 3.45-5.4004 6.249-6.9569s6.037-2.1317 9.2-1.6342c11.704 1.2895 15.867 17.8352 15.867 17.8352.339-1.3666 1.149-2.5696 2.287-3.3968 1.137-.8272 2.53-1.2255 3.933-1.1248 5.367 0 13.526 7.9547 11.586 16.7467 0 0 13.727-4.3039 21.017 6.6989 7.29 11.002 6.437 22.993-11.152 27.716-18.392 4.94-18.224-16.546-21.017-19.343-2.792-2.797-5.785-6.012-16.084-2.143-10.3 3.868-21.034-7.52-21.034-7.52s-1.672 13.749-3.427 15.072c-1.756 1.323-5.15 3.015-4.297-3.433.852-6.447 1.939-5.811 1.287-7.519s-3.544-7.151-9.647-2.361c-6.855 5.258-2.575 16.277-2.575 16.277z" fill="#2a1e33"/><path d="m463.423 125.461c-4.096-3.349-6.939-9.512-3.344-15.574s9.497-6.883 11.286-4.589c1.789 2.295 2.491 6.163.802 10.752" stroke="#2a1e33" stroke-linecap="round" stroke-linejoin="round"/><path d="m362.853 536.207 2.04 4.706-6.303 24.651c-.399 1.522-.36 3.127.11 4.628.47 1.502 1.353 2.841 2.548 3.863l31.216-46.272c1.433-2.129 2.06-4.7 1.768-7.251-.291-2.551-1.481-4.914-3.356-6.665l-6.989-6.498z" fill="#000"/><path d="m470.161 86.7597s-2.408-7.7873-9.58-9.8471" stroke="#2a1e33" stroke-linecap="round" stroke-linejoin="round"/><path d="m318.094 263.672 86.576-121.129" stroke="#fff" stroke-linecap="round" stroke-linejoin="round"/><path d="m440.366 151.017c-3.126 4.069-4.547 21.553 9.815 22.675 8.191.816 16.429-.996 23.525-5.175" stroke="#fff" stroke-linecap="round" stroke-linejoin="round"/><path d="m248.674 95.1499s9.898 13.1131 11.453 17.7851" stroke="#fff" stroke-linecap="round" stroke-linejoin="round"/><path d="m619.252 271.04s6.687 5.443 19.779-1.675c4.765-2.562 1.371-8.607-4.681-7.1-6.053 1.507-13.209-.754-13.209-.754" stroke="#fff" stroke-linecap="round" stroke-linejoin="round"/><path d="m646.873 260.49s6.337 7.419 6.169 11.823" stroke="#fff" stroke-linecap="round" stroke-linejoin="round"/><path d="m553.509 259.686s5.735-7.653 13.075-8.172" stroke="#fff" stroke-linecap="round" stroke-linejoin="round"/><path d="m311.657 158.469s3.344-10.45 14.078-12.359" stroke="#fff" stroke-linecap="round" stroke-linejoin="round"/><path d="m340.733 317.027-12.807 24.467s-42.201 71.525-27.872 117.745" stroke="#fff" stroke-linecap="round" stroke-linejoin="round"/><path d="m378.118 399.085 41.516-71.29s54.423-79.061 59.99-90.131l19.212-35.587" stroke="#fff" stroke-linecap="round" stroke-linejoin="round"/><path d="m323.913 271.275s73.851 53.924 95.737 56.52" stroke="#fff" stroke-linecap="round" stroke-linejoin="round"/><path d="m362.368 138.541s0 33.845 9.046 47.711" stroke="#fff" stroke-linecap="round" stroke-linejoin="round"/><path d="m525.002 205.175c-2.324 13.934-33.139 43.224-33.139 43.224" stroke="#fff" stroke-linecap="round" stroke-linejoin="round"/><path d="m295.004 378.872c2.42 0 4.381-1.964 4.381-4.388 0-2.423-1.961-4.387-4.381-4.387-2.419 0-4.38 1.964-4.38 4.387 0 2.424 1.961 4.388 4.38 4.388z" fill="#fff"/><path d="m706.379 468.852-2.425-16.797 14.296 9.529-7.474 1.624z" stroke="#fff" stroke-linecap="round" stroke-linejoin="round"/><path d="m231.954 182.099c-27.103-23.965-71.895 35.771 91.959 225.912 94.55 109.691 168.87 119.521 178.902 81.356 18.057-68.461-47.15-85.76-22.873-58.949 35.279 38.987 135.614 47.226 210.402 10.852 73.785-35.905 28.424-91.654 23.843-94.92" stroke="#fff" stroke-linecap="round" stroke-linejoin="round"/><path d="m691.582 445.306c2.419 0 4.38-1.964 4.38-4.387 0-2.424-1.961-4.388-4.38-4.388-2.42 0-4.381 1.964-4.381 4.388 0 2.423 1.961 4.387 4.381 4.387z" fill="#fff"/><path d="m627.779 476.773 129.963-73.384" stroke="#fff" stroke-linecap="round" stroke-linejoin="round"/><path d="m234.663 190.037c2.419 0 4.38-1.965 4.38-4.388s-1.961-4.388-4.38-4.388c-2.42 0-4.381 1.965-4.381 4.388s1.961 4.388 4.381 4.388z" fill="#fff"/><path d="m346.468 104.394c5.199 0 9.413-4.221 9.413-9.4284 0-5.2071-4.214-9.4284-9.413-9.4284s-9.413 4.2213-9.413 9.4284c0 5.2074 4.214 9.4284 9.413 9.4284z" fill="#ff6d66"/><path d="m175.792 23.1059c-.821-.0033-1.624.2374-2.308.6918-.684.4543-1.218 1.1018-1.535 1.8604-.316.7585-.401 1.5941-.243 2.4009.159.8067.552 1.5483 1.131 2.1308.58.5825 1.318.9797 2.123 1.1414.805.1616 1.64.0803 2.398-.2335.759-.3139 1.408-.8462 1.864-1.5295.456-.6834.7-1.487.7-2.3091 0-1.0986-.435-2.1525-1.209-2.9309s-1.824-1.2179-2.921-1.2223z" fill="#a0c6f4"/><path d="m729.87 537.53c2.281 0 4.13-1.852 4.13-4.136 0-2.285-1.849-4.137-4.13-4.137s-4.13 1.852-4.13 4.137c0 2.284 1.849 4.136 4.13 4.136z" fill="#fad8b0"/><path d="m655.985 346.333-44.491-20.883c-.785-.388-1.443-.991-1.9-1.738-.456-.748-.692-1.609-.679-2.485.012-.877.272-1.731.749-2.466.477-.734 1.152-1.318 1.947-1.684l82.696-36.441c.579-.257 1.206-.389 1.839-.389s1.26.132 1.839.389l56.848 24.417z" fill="#2a1e33"/><path d="m653.293 277.672c.1 18.421 2.742 68.662 2.742 68.662l98.848-41.348-2.224-69.917c-.029-.992-.303-1.961-.796-2.821-.494-.86-1.192-1.584-2.033-2.108s-1.799-.831-2.787-.895c-.988-.063-1.977.119-2.878.532l-85.087 38.852c-1.736.783-3.207 2.055-4.234 3.66-1.027 1.606-1.566 3.476-1.551 5.383z" fill="#121212"/><path d="m655.985 346.333 98.848-41.347-2.224-69.918s-.652-7.636-8.494-5.292" stroke="#fff" stroke-linecap="round" stroke-linejoin="round"/><path d="m703.82 296.076 6.672-15.792" stroke="#fff" stroke-linecap="round" stroke-linejoin="round"/><path d="m710.492 296.076 6.671-15.792" stroke="#fff" stroke-linecap="round" stroke-linejoin="round"/><path d="m193.599 468.4c2.28 0 4.129-1.852 4.129-4.137 0-2.284-1.849-4.136-4.129-4.136-2.281 0-4.13 1.852-4.13 4.136 0 2.285 1.849 4.137 4.13 4.137z" fill="#ff6d66"/><path d="m542.257 490.556c3.176 0 5.751-2.58 5.751-5.761 0-3.182-2.575-5.761-5.751-5.761-3.177 0-5.752 2.579-5.752 5.761 0 3.181 2.575 5.761 5.752 5.761z" fill="#ff6d66"/><path d="m236.468 525.707c16.372 7.536 34.199 11.366 52.216 11.22.335.003.665.076.969.215s.576.341.797.592.386.547.485.866c.1.32.13.658.09.99l-3.611 28.67c-.072.498-.301.959-.653 1.318-.351.358-.808.595-1.304.675-7.323 1.39-36.783 5.443-58.887-13.397-.336-.289-.584-.667-.714-1.091s-.138-.876-.021-1.304l7.289-27.347c.101-.332.274-.637.506-.895.232-.257.518-.46.837-.594.319-.135.664-.197 1.01-.183.346.015.684.105.991.265z" fill="#fff7dc"/><path d="m239.06 534.08s12.74 17.936 17.288 20.515 29.093-12.091 29.093-12.091" stroke="#fff" stroke-linecap="round" stroke-linejoin="round"/><path d="m268.37 552.117 13.392 13.782" stroke="#fff" stroke-linecap="round" stroke-linejoin="round"/><path d="m249.761 549.454-15.667 4.27" stroke="#fff" stroke-linecap="round" stroke-linejoin="round"/><path d="m646.505 186.402h-14.964v14.989h14.964z" fill="#ffe1c0"/><path d="m633.564 388.518 4.447 7.721 4.448 7.72h-8.895-8.878l4.43-7.72z" fill="#a0c6f4"/><path d="m274.004 46.7521 1.171-35.0341c-.134-3.34932 1.203-4.30389 3.21-4.75605 9.497-2.09334 38.455-8.5408 69.772.75361 4.062 1.20576 3.929 3.34934 3.862 5.29194l-1.12 33.3929c-.082.624-.293 1.224-.62 1.7613-.328.5372-.764.9999-1.28 1.358-.517.3582-1.103.6039-1.72.7214-.618.1175-1.253.1041-1.864-.0392-11.383-1.3645-22.848-1.9241-34.309-1.6747-11.024-.0471-22.032.8437-32.905 2.6627-3.11.5861-4.28-1.6914-4.197-4.4378z" stroke="#fff" stroke-linecap="round" stroke-linejoin="round"/><path d="m284.571 41.728 18.292-21.4358 20.231 20.0123c-6.989-2.3613-38.523 1.4235-38.523 1.4235z" stroke="#fff" stroke-linecap="round" stroke-linejoin="round"/><path d="m314.048 30.1393 14.781-11.8566 12.456 8.9092.468 13.9165-18.676-.9043" stroke="#fff" stroke-linecap="round" stroke-linejoin="round"/><path d="m292.472 18.6138c.17-1.684-1.294-3.2111-3.269-3.411-1.975-.2-3.714 1.003-3.884 2.687s1.294 3.2112 3.269 3.4111c1.975.2 3.714-1.0031 3.884-2.6871z" stroke="#fff" stroke-linecap="round" stroke-linejoin="round"/><path d="m627.461 501.776 12.256 22.675c1.287 2.026.836 3.182-.285 4.22-5.25 4.873-21.25 19.711-44.658 25.505-3.026.754-3.745-.67-4.414-1.926l-11.704-21.619c-.177-.429-.263-.889-.253-1.352.009-.463.115-.92.31-1.34s.475-.795.822-1.102c.347-.306.753-.537 1.194-.678 7.739-3.365 15.227-7.282 22.405-11.723 7.07-4.034 13.783-8.667 20.063-13.849 1.672-1.675 3.344-.586 4.264 1.189z" stroke="#fff" stroke-linecap="round" stroke-linejoin="round"/><path d="m622.646 508.96-3.662 20.415-20.264-5.175c5.266-1.139 23.926-15.24 23.926-15.24z" stroke="#fff" stroke-linecap="round" stroke-linejoin="round"/><path d="m608.183 527.248-4.999 13.028-11.202-1.021-5.468-8.675 12.189-6.38" stroke="#fff" stroke-linecap="round" stroke-linejoin="round"/><path d="m629.443 527.599c1.327-.607 1.986-2.014 1.472-3.141-.515-1.127-2.007-1.548-3.334-.941s-1.986 2.013-1.472 3.141c.515 1.127 2.007 1.548 3.334.941z" stroke="#fff" stroke-linecap="round" stroke-linejoin="round"/><path d="m567.771 114.626 49.809 38.183c.259.2.555.346.871.43s.645.104.969.059c.324-.046.636-.155.917-.323.281-.167.526-.389.72-.652l7.524-10.216c.37-.509.529-1.141.445-1.765s-.405-1.191-.896-1.584l-49.106-39.3714c-.261-.2081-.56-.361-.881-.4495-.322-.0885-.657-.1107-.987-.0653s-.647.1575-.933.3295c-.285.172-.533.4003-.727.671l-8.226 11.3877c-.37.516-.524 1.157-.43 1.785.093.628.427 1.195.931 1.581z" fill="#fff" stroke="#fff" stroke-linecap="round" stroke-linejoin="round"/><path d="m571.45 112.918 12.071 8.491 7.14-8.524-12.089-10.099z" fill="#ff6d66"/><path d="m588.069 124.725 12.105 9.612 6.488-7.988-12.189-9.897z" fill="#fad8b0"/><path d="m604.237 138.021 12.089 8.491 5.751-7.402-11.436-9.596z" fill="#a0c6f4"/><path d="m667.171 61.2378 11.352 95.4562c.052.502.204.989.447 1.432.243.442.572.831.968 1.144.397.312.851.542 1.338.675.486.132.995.166 1.494.098l19.228-2.646c.965-.129 1.841-.63 2.443-1.396.603-.766.884-1.737.784-2.707l-9.313-96.0251c-.051-.5073-.204-.9989-.451-1.4452-.246-.4462-.58-.8377-.982-1.1509-.401-.3131-.862-.5413-1.355-.6708-.492-.1295-1.006-.1575-1.509-.0824l-21.251 3.1148c-.976.1415-1.858.6613-2.455 1.4475s-.863 1.7759-.738 2.7559z" fill="#fff" stroke="#fff" stroke-linecap="round" stroke-linejoin="round"/><path d="m672.972 63.4652 3.595 22.3401 16.954-1.256-1.856-24.065z" fill="#ff6d66"/><path d="m677.788 94.3459 2.391 23.5621 15.683-1.406-2.174-23.948z" fill="#91ba83"/><path d="m680.48 126.332 3.594 22.34 14.262-1.574-1.722-22.826z" fill="#fad8b0"/><path d="m642.392 81.5684 31.433 92.5586c.128.377.329.725.592 1.023.264.299.584.542.942.715s.746.272 1.143.293.794-.037 1.169-.172l19.696-7.1c.727-.266 1.324-.803 1.666-1.498.343-.696.405-1.497.173-2.237l-29.511-93.4631c-.124-.3881-.325-.747-.591-1.0551-.266-.308-.592-.5589-.957-.7373-.366-.1785-.764-.2808-1.17-.3008-.407-.0201-.813.0425-1.194.1841l-21.602 8.0216c-.734.2651-1.334.8098-1.669 1.5154s-.378 1.5152-.12 2.2526z" fill="#fff" stroke="#fff" stroke-linecap="round" stroke-linejoin="round"/><path d="m648.762 83.2597 8.159 21.1173 16.319-4.7725-6.805-23.1607z" fill="#a0c6f4"/><path d="m659.897 112.466 7.223 22.558 15.048-4.656-7.089-22.976z" fill="#f9865f"/><path d="m669.16 143.196 8.159 21.101 13.627-4.522-6.42-21.971z" fill="#fad8b0"/><path d="m405.472 198.477h-158.754c-5.061 0-9.163 4.109-9.163 9.177v21.52c0 5.068 4.102 9.177 9.163 9.177h158.754c5.06 0 9.163-4.109 9.163-9.177v-21.52c0-5.068-4.103-9.177-9.163-9.177z" fill="#7595ec"/><path d="m345.983 210.216h-86.542c-1.671 0-3.026 1.357-3.026 3.031 0 1.675 1.355 3.032 3.026 3.032h86.542c1.671 0 3.026-1.357 3.026-3.032 0-1.674-1.355-3.031-3.026-3.031z" fill="#fff"/><path d="m257.284 224.149h147.118" stroke="#fff" stroke-linecap="round" stroke-linejoin="round"/><path d="m182.008 123.451 2.503 2.745c.509.557.775 1.294.741 2.049-.034.754-.366 1.464-.922 1.973l-4.099 3.75c-.556.509-1.292.776-2.045.742s-1.462-.367-1.971-.924l-2.503-2.745z" fill="#91ba83"/><path d="m159.465 118.115 11.807 12.946c.61.669 1.646.716 2.315.105l8.159-7.466c.669-.611.716-1.649.105-2.318l-11.806-12.946c-.61-.669-1.647-.716-2.315-.105l-8.16 7.466c-.668.611-.715 1.649-.105 2.318z" stroke="#fff" stroke-linecap="round" stroke-linejoin="round"/><path d="m147.134 176.941h-14.83v13.564h14.83z" fill="#ff6d66"/><path d="m132.304 168.215v8.725h-8.862" stroke="#fff" stroke-linecap="round" stroke-linejoin="round"/><path d="m635.771 23.7589h-14.831v13.5648h14.831z" fill="#fad8b0"/><path d="m620.94 15.0339v8.7251h-8.861" stroke="#fff" stroke-linecap="round" stroke-linejoin="round"/><path d="m219.531 107.609c-153.8221-63.8381-272.1316 59.116 17.706 247.382 22.823 14.838 57.834 20.096 57.834 20.096" stroke="#fff" stroke-linecap="round" stroke-linejoin="round"/><path d="m78.0982 116.284c2.4194 0 4.3806-1.964 4.3806-4.387s-1.9612-4.388-4.3806-4.388c-2.4193 0-4.3805 1.965-4.3805 4.388s1.9612 4.387 4.3805 4.387z" fill="#fff"/><path d="m50.2096 87.7981 4.7986-4.6221 11.0183 6.3303 5.551 17.1317-16.9372-7.1005z" stroke="#fff" stroke-linecap="round" stroke-linejoin="round"/><path d="m55.0082 83.176-4.7986 4.622-2.6919-3.2656 4.5979-4.4211z" stroke="#fff" stroke-linecap="round" stroke-linejoin="round"/><path d="m71.5776 106.638-11.0184-12.1077" stroke="#fff" stroke-linecap="round" stroke-linejoin="round"/><path d="m98.1954 414.074 11.9376 61.694c.064.321.191.626.372.897.182.271.416.504.688.684.272.181.577.306.897.368s.65.06.969-.006l12.406-2.646c.622-.133 1.167-.503 1.523-1.03.355-.528.493-1.173.383-1.8l-10.6-62.08c-.057-.328-.181-.641-.363-.92-.181-.279-.418-.518-.694-.703-.277-.184-.588-.311-.915-.372-.327-.06-.663-.054-.987.019l-13.694 3.048c-.3129.06-.611.181-.8771.357s-.495.402-.6735.667c-.1786.264-.3034.561-.3672.874s-.0655.635-.0048.949z" fill="#fff" stroke="#fff" stroke-linecap="round" stroke-linejoin="round"/><path d="m102.125 415.246 3.41 14.385 10.969-1.624-2.341-15.591z" fill="#ff6d66"/><path d="m106.739 435.141 2.675 15.223 10.149-1.658-2.558-15.508z" fill="#fad8b0"/><path d="m110.016 455.84 3.394 14.385 9.213-1.724-2.19-14.771z" fill="#a0c6f4"/><g stroke="#fff"><path d="m440.467 568.662 50.494-13.531 1.939 5.476-51.079 13.28z" stroke-linecap="round" stroke-linejoin="round"/><path d="m433.444 561.595 1.472 4.589" stroke-linecap="round" stroke-linejoin="round"/><path d="m432.023 564.592 4.264-1.473" stroke-linecap="round" stroke-linejoin="round"/><path d="m431.003 579.129 2.742 8.675" stroke-linecap="round" stroke-linejoin="round"/><path d="m428.663 584.622 7.59-2.412" stroke-linecap="round" stroke-linejoin="round"/><path d="m419.45 564.827 3.595 11.488" stroke-linecap="round" stroke-linejoin="round"/><path d="m415.889 571.978 10.633-3.4" stroke-linecap="round" stroke-linejoin="round"/><path d="m72.1794 19.1032-31.9516-14.45242 1.3209-3.65078 32.1522 14.8208z" stroke-linecap="round" stroke-linejoin="round" stroke-width=".67"/><path d="m72.8315 25.7684 1.1871-3.0144" stroke-linecap="round" stroke-linejoin="round" stroke-width=".67"/><path d="m74.8378 24.8139-2.8423-1.055" stroke-linecap="round" stroke-linejoin="round" stroke-width=".67"/><path d="m81.5258 17.6964 2.2571-5.6603" stroke-linecap="round" stroke-linejoin="round" stroke-width=".67"/><path d="m85.0704 15.8377-4.9491-1.9761" stroke-linecap="round" stroke-linejoin="round" stroke-width=".67"/><path d="m81.4589 30.0389 3.0096-7.4857" stroke-linecap="round" stroke-linejoin="round" stroke-width=".67"/><path d="m86.3411 27.8449-6.9555-2.7632" stroke-linecap="round" stroke-linejoin="round" stroke-width=".67"/></g><path d="m191.643 289.478c-22.539-16.244-44.676-41.498-34.962-67.439 0 0 15.533-10.366 40.128 2.596l24.612 13.029z" fill="url(#b)"/><path d="m181.427 397.712c-10.149-4.806-53.42-27.381-61.128-65.948-6.688-33.293 18.793-78.224 31.534-98.086-.82 26.343 25.598 48.65 38.338 57.827 10.841 7.984 22.803 14.316 35.496 18.79z" fill="#fff"/><path d="m149.893 241.516c2.759 17.517 16.101 35.654 38.807 52.032 10.245 7.573 21.502 13.667 33.439 18.103l-41.799 82.729c-12.774-6.364-50.511-27.9-57.55-63.102-5.835-29.256 13.961-68.058 27.137-89.762zm6.822-19.476s-47.902 64.843-38.84 110.226c9.062 45.384 64.739 68.662 64.739 68.662l46.598-92.107c-14.563-5.342-24.026-9.696-37.536-19.443-22.538-16.244-44.675-41.498-34.961-67.439z" fill="url(#c)"/><path d="m144.091 259.719c1.405 8.435 4.733 16.432 9.727 23.368 4.993 6.937 11.518 12.625 19.065 16.623" stroke="#fff" stroke-linecap="round" stroke-linejoin="round"/><path d="m186.794 309.022 25.999 13.95" stroke="#fff" stroke-linecap="round" stroke-linejoin="round"/><path d="m147.803 296.93s8.36 18.606 35.279 30.697" stroke="#fff" stroke-linecap="round" stroke-linejoin="round"/><path d="m126.435 299.711s.937 19.543 13.928 26.058" stroke="#fff" stroke-linecap="round" stroke-linejoin="round"/><path d="m156.163 231.82s-2.408 25.12 35.479 57.659" stroke="#fff" stroke-linecap="round" stroke-linejoin="round"/><path d="m170.091 236.475s12.071-.938 29.711 12.091" stroke="#fff" stroke-linecap="round" stroke-linejoin="round"/><path d="m113.243 316.558c-.769 12.443.786 57.541 65.993 86.312" stroke="#fff" stroke-linecap="round" stroke-linejoin="round"/><path d="m529.684 291.471-27.655 55.516s18.76 6.916 4.096 28.469c0 0 34.677 14.402 57.366-22.993 22.689-37.396-33.807-60.992-33.807-60.992z" fill="url(#d)"/><path d="m466.382 461.148c-13.994 0-28.758-5.727-43.923-17.031l51.732-85.877 30.781 19.409.2.084c5.38 1.978 11.073 2.965 16.804 2.914 9.721.06 19.215-2.946 27.136-8.591l-37.82 64.893c-.084.118-16.369 24.25-44.91 24.25z" fill="#fff"/><path d="m475.027 361.757 28.423 17.936.368.234.385.151c5.687 2.106 11.709 3.161 17.773 3.115 6.967.026 13.862-1.423 20.231-4.254l-33.005 56.554c-1.07 1.574-16.386 23.144-42.803 23.144-12.891 0-26.534-5.108-40.612-15.19zm88.464-9.311c-12.824 21.134-29.46 25.723-41.515 25.723-5.404.045-10.772-.88-15.851-2.73l-32.754-20.649-54.155 89.964c18.091 13.966 33.924 18.99 47.183 18.99 30.28 0 47.066-25.488 47.066-25.488l50.026-85.726z" fill="url(#e)"/><path d="m502.029 346.986s20.632 7.302 4.096 28.47" stroke="#fff" stroke-linecap="round" stroke-linejoin="round"/><path d="m472.719 352.848s28.106 25.789 43.656 25.605c15.549-.184 33.807-3.868 44.558-22.457" stroke="#fff" stroke-linecap="round" stroke-linejoin="round"/><path d="m476.18 386.207s19.278 17.148 40.847 11.639" stroke="#fff" stroke-linecap="round" stroke-linejoin="round"/><path d="m496.428 411.83s10.115 7.586 24.26.401" stroke="#fff" stroke-linecap="round" stroke-linejoin="round"/><path d="m449.88 422.414s23.408 23.261 60.108 7.921" stroke="#fff" stroke-linecap="round" stroke-linejoin="round"/><path d="m462.587 399.722s9.53 6.832 15.499 9.01" stroke="#fff" stroke-linecap="round" stroke-linejoin="round"/><path d="m534.432 307.581s21.318 6.984 23.876 35.168" stroke="#fff" stroke-linecap="round" stroke-linejoin="round"/><path d="m545.149 342.398s9.815 15.222-6.771 30.428" stroke="#fff" stroke-linecap="round" stroke-linejoin="round"/><path d="m421.122 440.567s53.503 67.12 92.377-11.371" stroke="#fff" stroke-linecap="round" stroke-linejoin="round"/><path d="m34.7438 274.138h12.473" stroke="#ff6d66" stroke-linecap="round" stroke-linejoin="round"/><path d="m729.87 123.803h12.473" stroke="#ff6d66" stroke-linecap="round" stroke-linejoin="round"/><path d="m395.223 38.0605h12.49" stroke="#fad8b0" stroke-miterlimit="10"/><path d="m753.696 188.63 12.272 2.21" stroke="#fad8b0" stroke-miterlimit="10"/><path d="m263.504 500.503h12.49" stroke="#a0c6f4" stroke-linecap="round" stroke-linejoin="round"/><path d="m780.581 348.829c2.281 0 4.13-1.852 4.13-4.137 0-2.284-1.849-4.136-4.13-4.136s-4.13 1.852-4.13 4.136c0 2.285 1.849 4.137 4.13 4.137z" fill="#91ba83"/><path d="m4.12979 150.18c2.28082 0 4.1298-1.852 4.1298-4.137 0-2.284-1.84898-4.136-4.1298-4.136s-4.12979 1.852-4.12979 4.136c0 2.285 1.84897 4.137 4.12979 4.137z" fill="#91ba83"/></svg>